<svg data-v-423bf9ae="" xmlns="http://www.w3.org/2000/svg" viewBox="0 0 565 90" class="iconLeft"><!----><!----><!----><g data-v-423bf9ae="" id="b098e1be-220d-44d8-bc3e-eea2fb48b6ac" fill="#000000" transform="matrix(4.768527543583653,0,0,4.768527543583653,80.98096588960348,13.617127923318204)"><path d="M11.59 8.57C11.47 8.62 11.37 8.64 11.27 8.64C10.99 8.64 10.85 8.44 10.85 8.04L10.85 7.63L10.85 5.73C10.85 4.26 10.04 3.37 8.71 3.37C7.81 3.37 6.99 3.75 6.37 4.52C6.03 3.79 5.38 3.37 4.47 3.37C3.64 3.37 2.88 3.70 2.28 4.34L2.06 3.67C1.92 3.28 0.69 3.23 0.69 3.77L0.69 9.63C0.69 10.19 2.32 10.19 2.32 9.63L2.32 5.73C2.83 5.07 3.33 4.82 3.78 4.82C4.56 4.82 4.96 5.28 4.96 6.30L4.96 9.63C4.96 10.19 6.59 10.19 6.59 9.63L6.59 5.73L6.59 5.70C7.08 5.05 7.57 4.82 8.02 4.82C8.79 4.82 9.21 5.28 9.21 6.30L9.21 7.20L9.21 8.29C9.21 9.66 9.79 10.11 10.51 10.11C10.85 10.11 11.21 10.01 11.59 9.87C12.18 9.62 12.15 8.29 11.59 8.57ZM16.00 10.05C18.09 10.05 19.31 8.82 19.31 6.72C19.31 4.61 18.09 3.36 16.00 3.36C13.92 3.36 12.70 4.61 12.70 6.72C12.70 8.82 13.92 10.05 16.00 10.05ZM16.00 8.82C14.95 8.82 14.34 8.06 14.34 6.72C14.34 5.35 14.95 4.59 16.00 4.59C17.05 4.59 17.67 5.35 17.67 6.72C17.67 8.06 17.05 8.82 16.00 8.82ZM27.40 8.48C27.27 8.53 27.16 8.55 27.08 8.55C26.80 8.55 26.67 8.36 26.67 7.97L26.67 7.18L26.67 0.62C26.67-0.04 25.03 0.66 25.03 1.32L25.03 4.12C24.46 3.64 23.67 3.37 22.81 3.37C21.32 3.37 20.31 4.70 20.31 6.69C20.31 8.72 21.32 10.04 22.81 10.04C23.76 10.04 24.58 9.70 25.16 9.14C25.35 9.79 25.80 10.02 26.33 10.02C26.67 10.02 27.03 9.93 27.40 9.79C28 9.52 27.97 8.22 27.40 8.48ZM23.52 8.61C22.50 8.62 21.98 7.97 21.98 6.69C21.98 5.46 22.50 4.80 23.52 4.82C24.07 4.82 24.58 5.04 25.03 5.46L25.03 7.91C24.60 8.36 24.07 8.61 23.52 8.61ZM35.70 8.48C35.57 8.54 35.48 8.57 35.38 8.57C35.10 8.57 34.96 8.37 34.96 7.97L34.96 3.78C34.96 3.22 33.32 3.22 33.32 3.78L33.32 7.64C32.72 8.34 32.12 8.61 31.56 8.61C30.72 8.61 30.25 8.15 30.25 7.13L30.25 3.54C30.25 2.88 28.63 3.58 28.63 4.24L28.63 7.70C28.63 9.16 29.48 10.04 30.88 10.04C31.84 10.04 32.72 9.70 33.40 9.00C33.59 9.76 34.05 10.04 34.61 10.04C34.96 10.04 35.32 9.94 35.70 9.80C36.29 9.53 36.26 8.22 35.70 8.48ZM43.71 8.48C43.60 8.53 43.50 8.54 43.40 8.54C43.13 8.54 42.99 8.33 42.99 7.76L42.99 6.03C42.99 4.05 41.90 3.37 40.19 3.37C38.78 3.37 37.95 3.65 37.37 4.14C36.90 4.51 37.00 5.56 37.48 5.26C38.05 4.93 38.82 4.69 39.69 4.69C40.87 4.69 41.36 5.08 41.36 6.24L41.36 6.31C40.92 6.09 40.28 5.95 39.38 5.95C37.88 5.95 36.92 6.76 36.92 8.01C36.92 9.25 37.83 10.05 39.23 10.05C40.31 10.05 41.06 9.66 41.52 9.24C41.75 9.81 42.17 10.02 42.66 10.02C42.99 10.02 43.36 9.93 43.71 9.79C44.31 9.53 44.31 8.26 43.71 8.48ZM39.68 8.75C38.86 8.75 38.57 8.37 38.57 7.97C38.57 7.55 38.89 7.15 39.76 7.15C40.57 7.15 41.10 7.29 41.36 7.48L41.36 8.04C41.10 8.34 40.54 8.75 39.68 8.75ZM48.05 8.48C47.78 8.57 47.56 8.62 47.39 8.62C47.01 8.62 46.86 8.36 46.86 7.76L46.86 0.71C46.86 0.04 45.22 0.74 45.22 1.41L45.22 8.15C45.22 9.56 45.91 10.05 46.77 10.05C47.18 10.05 47.61 9.94 48.05 9.79C48.65 9.52 48.64 8.26 48.05 8.48ZM56.15 8.48C56.04 8.53 55.94 8.54 55.85 8.54C55.58 8.54 55.44 8.33 55.44 7.76L55.44 6.03C55.44 4.05 54.35 3.37 52.64 3.37C51.23 3.37 50.40 3.65 49.81 4.14C49.35 4.51 49.45 5.56 49.92 5.26C50.50 4.93 51.27 4.69 52.14 4.69C53.31 4.69 53.80 5.08 53.80 6.24L53.80 6.31C53.37 6.09 52.72 5.95 51.83 5.95C50.33 5.95 49.36 6.76 49.36 8.01C49.36 9.25 50.27 10.05 51.67 10.05C52.75 10.05 53.51 9.66 53.97 9.24C54.19 9.81 54.61 10.02 55.10 10.02C55.44 10.02 55.80 9.93 56.15 9.79C56.76 9.53 56.76 8.26 56.15 8.48ZM52.12 8.75C51.31 8.75 51.02 8.37 51.02 7.97C51.02 7.55 51.34 7.15 52.21 7.15C53.02 7.15 53.55 7.29 53.80 7.48L53.80 8.04C53.55 8.34 52.99 8.75 52.12 8.75ZM61.64 3.43C60.55 3.46 59.74 3.88 59.21 4.54L59.00 3.68C58.90 3.29 57.57 3.28 57.57 3.81L57.57 9.63C57.57 10.19 59.22 10.19 59.22 9.63L59.22 5.94C59.86 5.25 60.52 5.04 61.33 5.00C61.82 4.98 62.16 3.42 61.64 3.43ZM67.65 5.29C67.65 4.84 68.32 4.58 69.19 4.58C69.90 4.58 70.74 4.76 71.48 5.15C71.90 5.39 71.86 4.07 71.46 3.88C70.77 3.54 69.92 3.37 69.08 3.37C67.49 3.37 66.01 3.98 66.01 5.33C66.01 6.80 67.55 7 68.77 7.20C69.58 7.32 70.25 7.43 70.25 7.92C70.25 8.46 69.54 8.75 68.63 8.75C67.90 8.75 67.06 8.57 66.33 8.18C65.88 7.97 65.95 9.35 66.35 9.55C67.03 9.87 67.93 10.05 68.80 10.05C70.38 10.05 71.89 9.42 71.89 7.95C71.89 6.34 70.34 6.16 69.10 5.98C68.31 5.87 67.65 5.75 67.65 5.29ZM72.91 6.72C72.91 8.97 74.31 10.05 76.34 10.05C77.24 10.05 77.92 9.74 78.34 9.42C78.72 9.11 78.72 7.76 78.22 8.08C77.81 8.36 77.20 8.61 76.55 8.61C75.49 8.61 74.55 8.19 74.55 6.72C74.55 5.24 75.49 4.80 76.55 4.80C77.20 4.80 77.81 5.07 78.22 5.35C78.71 5.68 78.72 4.31 78.34 3.99C77.92 3.65 77.24 3.36 76.34 3.36C74.31 3.36 72.91 4.42 72.91 6.72ZM83.79 3.43C82.70 3.46 81.89 3.88 81.35 4.54L81.14 3.68C81.05 3.29 79.72 3.28 79.72 3.81L79.72 9.63C79.72 10.19 81.37 10.19 81.37 9.63L81.37 5.94C82.01 5.25 82.67 5.04 83.48 5.00C83.97 4.98 84.31 3.42 83.79 3.43ZM86.02 2.31C86.58 2.31 86.97 1.92 86.97 1.29C86.97 0.70 86.58 0.29 86.02 0.29C85.43 0.29 85.05 0.70 85.05 1.29C85.05 1.92 85.43 2.31 86.02 2.31ZM87.16 8.51C87.12 8.53 87.08 8.54 87.04 8.54C86.90 8.54 86.83 8.43 86.83 8.25L86.83 3.56C86.83 2.90 85.18 3.58 85.18 4.26L85.18 8.65C85.18 9.63 85.65 10.04 86.28 10.04C86.56 10.04 86.87 9.97 87.16 9.83C87.75 9.53 87.75 8.26 87.16 8.51ZM92.61 3.37C91.70 3.37 90.89 3.70 90.31 4.23L90.10 3.67C89.98 3.28 88.73 3.25 88.73 3.78L88.73 12.46C88.73 13.01 90.38 13.01 90.38 12.46L90.38 9.30C90.96 9.77 91.74 10.04 92.61 10.04C94.11 10.04 95.10 8.74 95.10 6.73C95.10 4.72 94.11 3.37 92.61 3.37ZM91.90 8.61C91.35 8.60 90.83 8.37 90.38 7.95L90.38 5.50C90.82 5.05 91.35 4.82 91.90 4.80C92.92 4.80 93.45 5.46 93.45 6.72C93.45 7.95 92.92 8.61 91.90 8.61ZM100.84 8.26C99.53 9.02 98.74 8.76 98.74 7.45L98.74 5.12L100.94 5.12C101.50 5.12 101.50 3.68 100.94 3.68L98.74 3.68L98.74 2.03C98.74 1.50 97.44 1.50 97.37 1.90L97.09 3.68L96.24 3.68C95.68 3.68 95.68 5.12 96.24 5.12L97.09 5.12L97.09 7.39C97.09 9.95 99.05 10.58 100.84 9.59C101.32 9.30 101.30 8.01 100.84 8.26Z"></path></g><defs data-v-423bf9ae=""><linearGradient data-v-423bf9ae="" gradientTransform="rotate(25)" id="89f20985-a27e-449f-91cb-7a9206370c8a" x1="0%" y1="0%" x2="100%" y2="0%"><stop data-v-423bf9ae="" offset="0%" style="stop-color: rgb(40, 139, 88); stop-opacity: 1;"></stop><stop data-v-423bf9ae="" offset="100%" style="stop-color: rgb(21, 34, 241); stop-opacity: 1;"></stop></linearGradient></defs><g data-v-423bf9ae="" id="a31c08ca-c8e1-44a8-8c55-f471b18ba266" transform="matrix(2.8125,0,0,2.8125,-12.426001459360123,0)" stroke="none" fill="url(#89f20985-a27e-449f-91cb-7a9206370c8a)"><path d="M27.377 11.377L16 0 4.623 11.377 16 22.753l11.377-11.376zM16 6.026l5.35 5.35L16 16.727l-5.35-5.35L16 6.026zM27.426 14.969l-5.664 5.664V32h5.664zM10.238 20.633l-5.664-5.664V32h5.664z"></path></g><!----></svg>